<?xml version="1.0" standalone="no"?>
<!DOCTYPE svg PUBLIC "-//W3C//DTD SVG 20010904//EN"
 "http://www.w3.org/TR/2001/REC-SVG-20010904/DTD/svg10.dtd">
<svg version="1.0" xmlns="http://www.w3.org/2000/svg"
 width="3000.000000pt" height="3000.000000pt" viewBox="0 0 3000.000000 3000.000000"
 preserveAspectRatio="xMidYMid meet">
<metadata>
Created by potrace 1.11, written by Peter Selinger 2001-2013
</metadata>
<g transform="translate(0.000000,3000.000000) scale(0.100000,-0.100000)"
fill="#000000" stroke="none">
<path d="M13055 23329 c-106 -8 -160 -17 -320 -58 -184 -47 -372 -107 -455
-143 -25 -11 -65 -29 -90 -40 -261 -116 -395 -196 -510 -305 -54 -51 -113
-100 -132 -107 -77 -32 -176 -30 -532 14 -274 34 -478 -22 -701 -194 -43 -34
-217 -177 -225 -186 -13 -15 -161 -130 -182 -142 -12 -7 -30 -18 -38 -25 -17
-13 -160 -85 -260 -131 -36 -16 -103 -48 -150 -69 -67 -31 -328 -137 -475
-193 -11 -4 -49 -19 -85 -33 -36 -14 -110 -42 -165 -62 -55 -20 -109 -40 -120
-45 -24 -10 -126 -49 -218 -84 -37 -14 -73 -26 -81 -26 -18 0 -49 -17 -108
-58 -26 -17 -49 -32 -53 -32 -3 0 -31 -16 -61 -35 -30 -19 -56 -35 -59 -35 -3
0 -29 -16 -59 -35 -30 -19 -57 -35 -60 -35 -3 0 -30 -16 -60 -35 -30 -19 -57
-35 -60 -35 -3 0 -30 -16 -60 -35 -30 -19 -57 -35 -60 -35 -3 0 -30 -16 -60
-35 -30 -19 -57 -35 -59 -35 -2 0 -75 -43 -162 -95 -87 -52 -159 -95 -161 -95
-2 0 -28 -16 -58 -35 -30 -19 -62 -35 -69 -35 -8 0 -37 -19 -63 -43 -47 -42
-395 -305 -583 -441 -50 -36 -131 -95 -181 -131 -49 -36 -92 -65 -95 -65 -3 0
-27 -16 -54 -35 -26 -19 -51 -35 -55 -35 -11 0 -291 -171 -331 -203 -273 -214
-664 -597 -896 -877 -163 -198 -320 -464 -383 -653 -24 -72 -26 -90 -26 -262
0 -125 -4 -201 -14 -237 -16 -60 -52 -173 -66 -203 -4 -11 -29 -69 -53 -130
-25 -60 -66 -159 -92 -220 -56 -134 -109 -284 -130 -371 -35 -149 -55 -242
-74 -349 -6 -33 -18 -98 -26 -145 -9 -47 -20 -111 -25 -142 -6 -32 -15 -85
-21 -118 -7 -38 -9 -96 -5 -153 10 -143 50 -755 61 -947 16 -264 55 -369 279
-740 254 -423 278 -482 400 -1010 139 -599 251 -863 454 -1072 98 -101 167
-137 317 -167 136 -28 201 -43 220 -50 11 -5 52 -21 90 -36 88 -34 102 -40
145 -58 64 -27 214 -75 285 -91 112 -24 225 -35 470 -46 127 -6 320 -15 430
-20 110 -5 308 -12 440 -15 226 -6 361 -20 445 -46 63 -20 193 -92 275 -153
101 -74 346 -319 451 -451 130 -163 166 -213 441 -605 267 -380 487 -670 509
-670 7 0 26 12 43 26 17 14 32 22 32 17 1 -4 2 -26 3 -47 1 -39 1 -39 56 -51
30 -7 89 -17 130 -24 72 -11 191 -39 255 -59 30 -10 90 -36 220 -97 139 -65
201 -93 275 -120 41 -15 83 -31 92 -36 10 -5 25 -9 33 -9 8 0 23 -4 33 -10 30
-17 289 -99 425 -135 251 -65 276 -69 507 -71 211 -2 234 -4 355 -39 132 -37
230 -55 320 -56 94 -1 140 10 365 89 47 17 123 36 170 44 106 16 510 16 700 0
381 -34 478 -44 680 -67 279 -33 344 -42 680 -96 143 -23 390 -73 505 -102 44
-11 96 -23 115 -27 141 -31 460 -135 589 -191 175 -78 445 -215 543 -276 21
-13 40 -23 43 -23 3 0 31 -16 61 -35 30 -19 56 -35 59 -35 3 0 31 -16 62 -37
542 -342 974 -689 1140 -913 46 -61 63 -111 63 -184 0 -57 24 -156 50 -205 11
-20 41 -57 68 -83 42 -40 61 -50 118 -64 79 -18 117 -15 215 17 50 16 84 36
125 72 49 44 124 144 124 165 0 5 8 26 19 48 65 137 69 409 9 724 -11 58 -24
123 -28 145 -13 71 -50 162 -129 318 -48 94 -82 175 -89 211 -24 120 -10 357
26 446 26 65 91 82 264 69 148 -12 202 -26 323 -84 144 -70 176 -82 260 -95
85 -13 238 5 385 45 52 14 109 30 125 34 37 10 248 93 335 133 112 51 189 91
390 201 91 50 310 182 400 242 25 17 53 35 62 40 86 50 395 268 630 445 77 58
152 114 167 125 104 77 178 147 214 199 302 450 864 1227 937 1296 3 3 23 28
45 55 82 102 203 219 313 302 187 142 239 212 277 378 10 44 23 83 29 87 6 4
36 15 66 24 85 25 191 80 237 123 77 72 113 169 132 356 6 61 14 133 17 160 3
30 19 76 41 115 42 78 168 261 232 339 91 110 95 128 67 301 -8 47 -19 123
-25 170 -6 47 -22 166 -36 265 -13 99 -29 218 -35 265 -6 47 -15 112 -20 145
-5 33 -17 112 -25 175 -9 63 -20 142 -25 175 -5 33 -16 105 -25 160 -14 94
-19 126 -46 278 -9 54 -37 190 -70 352 -20 94 -41 190 -81 355 -21 91 -46 194
-54 230 -8 36 -27 112 -40 170 -14 58 -30 125 -36 150 -20 88 -182 597 -207
655 -5 11 -24 56 -41 100 -84 210 -311 562 -635 985 -23 30 -60 81 -81 114
-21 32 -42 64 -46 70 -16 24 -198 338 -198 342 0 3 -11 21 -24 42 -14 20 -38
60 -53 89 -63 117 -325 512 -406 613 -125 156 -533 565 -712 714 -38 32 -99
84 -135 116 -193 170 -255 223 -470 400 -265 218 -557 467 -610 520 -20 19
-54 48 -75 64 -22 17 -42 33 -45 36 -3 4 -41 36 -85 72 -81 64 -200 141 -330
213 -95 53 -504 258 -546 275 -19 7 -50 20 -69 28 -19 8 -44 18 -55 22 -11 4
-49 19 -85 33 -36 14 -85 33 -110 41 -25 8 -79 27 -120 41 -223 80 -354 104
-570 105 -171 0 -227 19 -380 125 -285 198 -367 223 -760 231 -237 5 -345 13
-460 35 -122 24 -639 155 -724 184 -27 9 -62 14 -80 11 -41 -7 -999 11 -1231
23 -415 22 -565 32 -650 41 -49 5 -144 14 -210 20 -218 21 -328 41 -470 84
-229 71 -258 76 -410 65z m235 -366 c47 -14 110 -33 141 -44 31 -10 76 -23
100 -28 57 -13 330 -47 489 -61 69 -6 161 -15 205 -21 44 -5 123 -9 175 -9 52
0 154 -5 225 -10 177 -13 626 -29 1060 -36 198 -3 374 -10 390 -14 52 -15 188
-52 225 -60 19 -4 105 -26 190 -47 85 -22 193 -48 240 -57 47 -10 101 -22 121
-27 20 -5 180 -13 355 -19 315 -9 393 -18 464 -52 25 -13 288 -184 304 -199 5
-4 -54 -85 -130 -179 -77 -94 -152 -189 -168 -211 -18 -24 -43 -43 -65 -50
-94 -29 -186 -98 -211 -159 -14 -33 -25 -36 -67 -19 -59 24 -70 28 -143 54
-41 15 -84 30 -95 35 -11 5 -54 20 -95 35 -41 15 -115 42 -165 60 -49 18 -124
45 -165 60 -41 15 -84 31 -95 35 -11 5 -40 16 -65 24 -48 16 -84 29 -195 71
-38 14 -90 33 -115 41 -25 8 -54 19 -65 24 -11 4 -54 20 -95 35 -76 27 -179
65 -350 128 -52 19 -120 44 -150 55 -52 18 -57 23 -86 83 -33 68 -89 126 -151
157 -55 28 -139 45 -181 38 -35 -6 -85 -11 -397 -35 -71 -6 -211 -18 -310 -26
-99 -9 -238 -20 -310 -26 -278 -21 -366 -29 -545 -44 -187 -16 -337 -28 -555
-45 -66 -5 -201 -16 -300 -25 -175 -15 -409 -32 -450 -33 -97 -1 -221 -49
-289 -112 -25 -23 -49 -39 -53 -37 -5 3 -32 52 -62 110 l-53 105 79 77 c97 96
150 130 331 217 164 79 255 116 362 148 41 13 102 31 135 42 33 10 79 23 103
29 23 5 63 14 90 20 98 22 209 36 257 32 28 -3 88 -16 135 -30z m-2205 -623
c238 -26 322 -30 395 -21 130 18 133 17 156 -31 11 -24 59 -118 107 -211 48
-92 87 -177 87 -190 0 -25 23 -95 47 -140 41 -81 192 -197 255 -197 19 0 29
-26 82 -205 20 -66 40 -133 45 -150 5 -16 22 -70 37 -120 15 -49 37 -123 50
-162 l23 -73 -60 -59 c-66 -66 -48 -64 -199 -21 -41 12 -97 28 -125 35 -27 8
-75 21 -105 30 -30 9 -86 25 -125 35 -38 10 -95 26 -125 35 -78 23 -106 31
-180 50 -36 10 -67 19 -68 20 -2 2 15 27 37 55 117 148 140 345 60 509 -59
119 -203 234 -321 256 -37 7 -39 9 -114 164 -166 340 -194 398 -194 404 0 7
102 1 235 -13z m3742 14 c-3 -3 -12 -4 -19 -1 -8 3 -5 6 6 6 11 1 17 -2 13 -5z
m-38 -8 c-2 -3 -70 -16 -149 -30 -261 -45 -324 -57 -395 -71 -38 -8 -83 -15
-100 -15 -34 0 -160 -25 -202 -40 -146 -53 -269 -166 -339 -310 -33 -70 -64
-222 -64 -319 0 -36 -4 -102 -10 -146 -5 -44 -14 -136 -20 -205 -6 -69 -15
-170 -20 -225 -5 -55 -14 -163 -20 -240 -12 -159 -16 -185 -30 -185 -24 0
-125 -55 -161 -87 -22 -20 -42 -34 -44 -31 -3 3 -37 88 -76 189 -39 101 -87
225 -106 274 -20 50 -46 117 -58 150 -13 33 -39 101 -58 150 -160 408 -297
774 -297 795 0 30 -25 103 -48 142 -9 15 -14 29 -11 31 2 3 78 10 169 16 200
14 336 25 580 46 180 15 299 25 553 45 67 5 203 16 302 25 99 9 240 20 314 25
74 6 137 12 139 15 3 3 39 5 80 5 42 0 73 -2 71 -4z m-4139 -56 c0 -5 54 -120
120 -255 66 -135 120 -252 120 -260 0 -8 -7 -15 -15 -15 -24 0 -120 -65 -165
-112 -145 -148 -174 -372 -72 -558 29 -53 103 -133 152 -164 54 -35 164 -76
204 -76 19 0 38 -4 41 -10 3 -5 19 -10 34 -10 15 0 47 -6 72 -14 24 -7 64 -19
89 -26 25 -7 59 -17 75 -21 46 -14 206 -58 245 -69 19 -5 76 -21 125 -35 50
-14 106 -30 125 -35 51 -14 210 -59 245 -69 17 -5 57 -17 90 -26 93 -26 102
-31 120 -70 24 -49 103 -117 161 -137 37 -13 104 -64 275 -210 592 -507 715
-611 734 -624 22 -16 15 -25 -35 -44 -60 -23 -179 -111 -241 -178 -53 -59
-149 -225 -149 -260 0 -7 -3 -12 -7 -12 -5 0 -126 95 -270 210 l-262 211 44
43 c67 68 115 176 115 262 0 48 -23 131 -52 182 -51 93 -152 163 -265 183 -32
6 -74 15 -93 19 -35 9 -215 54 -280 70 -19 5 -82 21 -140 35 -163 41 -169 42
-272 69 -54 14 -105 26 -113 26 -33 0 -75 30 -75 54 0 82 -89 247 -184 341
-107 106 -231 164 -393 185 -40 5 -109 18 -155 29 -114 27 -303 70 -363 83
-27 6 -55 12 -61 13 -6 2 -14 36 -17 77 -3 40 -13 129 -22 198 -8 69 -20 166
-25 215 -15 139 -28 255 -35 311 l-7 51 48 34 c43 29 210 163 224 179 3 3 43
38 90 76 140 117 220 165 220 134z m7785 -120 c105 -6 220 -17 257 -25 62 -14
228 -65 273 -85 11 -4 76 -29 145 -55 69 -27 148 -57 175 -69 55 -22 525 -256
525 -260 0 -3 -53 -25 -157 -67 -25 -10 -47 -19 -108 -44 -22 -10 -49 -20 -60
-25 -11 -4 -37 -15 -58 -24 -21 -9 -50 -16 -65 -16 -15 0 -48 -7 -73 -14 -128
-39 -232 -126 -290 -243 -18 -35 -33 -63 -34 -63 -3 0 -136 55 -181 75 -97 43
-250 109 -359 154 -88 37 -109 46 -207 90 -26 11 -78 33 -114 47 -65 26 -67
28 -95 91 -19 42 -48 83 -82 116 l-53 52 155 193 c150 187 157 193 186 188 16
-3 116 -10 220 -16z m-3574 -52 c54 -104 166 -176 299 -191 25 -3 99 -17 165
-31 66 -14 151 -33 189 -41 38 -8 71 -16 73 -19 2 -2 -9 -23 -25 -47 -16 -24
-36 -61 -43 -82 -13 -38 -14 -39 -54 -32 -22 3 -96 10 -165 15 -203 14 -502
40 -548 46 -24 4 -45 12 -46 18 -29 114 -80 210 -154 288 -41 43 -47 39 93 63
55 10 114 21 130 25 53 14 74 11 86 -12z m724 -38 c50 -18 94 -36 99 -40 4 -5
-45 3 -110 17 -124 26 -141 33 -129 53 9 15 26 11 140 -30z m702 -256 c58 -25
74 -32 123 -48 25 -8 90 -32 145 -52 55 -20 143 -51 195 -70 52 -18 104 -38
115 -43 11 -5 34 -14 50 -19 59 -20 180 -64 200 -72 11 -5 54 -20 95 -35 41
-14 83 -30 92 -36 10 -5 25 -9 33 -9 10 0 27 -25 44 -62 37 -81 89 -140 147
-169 l46 -22 -5 -61 c-3 -34 -13 -113 -22 -176 -21 -149 -33 -243 -46 -359 -5
-52 -14 -102 -20 -112 -5 -10 -26 -21 -47 -25 -247 -42 -472 -245 -553 -496
-10 -34 -19 -67 -19 -75 0 -10 -6 -12 -22 -7 -28 9 -80 22 -133 34 -44 11 -39
9 -270 70 -153 40 -187 49 -272 69 -151 35 -359 94 -365 104 -4 7 -8 20 -8 29
0 61 -82 208 -156 282 -34 34 -90 73 -159 112 -11 6 -20 16 -20 22 0 6 47 59
105 119 58 60 171 179 252 265 135 142 152 157 195 167 162 39 291 175 323
342 20 102 -11 229 -77 317 -27 36 -20 39 34 16z m-6407 -161 c5 -48 16 -146
25 -218 9 -71 20 -168 25 -215 4 -47 11 -102 15 -124 l8 -38 -34 7 c-19 3 -81
17 -139 31 -58 14 -123 29 -145 34 -164 36 -333 75 -415 94 -30 8 -82 19 -115
26 -174 38 -279 68 -260 75 21 7 86 32 120 45 11 5 65 25 120 45 116 43 127
47 178 69 21 9 42 16 47 16 6 0 44 16 86 35 41 19 77 35 79 35 3 0 30 12 62
26 178 81 213 97 268 124 33 15 61 27 63 25 2 -2 7 -43 12 -92z m2681 -63 c10
-30 23 -64 28 -75 5 -11 73 -186 151 -390 78 -203 153 -399 167 -435 14 -36
29 -74 33 -85 4 -11 19 -49 33 -85 14 -36 35 -92 47 -125 13 -33 28 -73 35
-90 42 -102 57 -147 76 -223 11 -46 19 -86 17 -87 -2 -2 -106 85 -231 192
-227 195 -228 196 -209 217 35 40 50 73 62 132 10 50 9 69 -5 116 -19 68 -83
144 -144 173 -36 18 -43 26 -56 75 -16 53 -55 183 -80 265 -7 22 -23 74 -35
115 -13 41 -36 116 -51 165 -16 50 -29 93 -29 96 0 3 25 19 55 35 31 16 66 39
77 52 12 12 26 21 31 19 5 -1 17 -27 28 -57z m5217 3 c41 -41 55 -111 30 -155
-27 -46 -50 -57 -117 -58 -60 0 -66 2 -93 32 -39 43 -40 116 -2 165 24 32 27
33 95 33 52 0 75 -4 87 -17z m-2938 -88 c158 -11 444 -35 558 -46 86 -9 112
-15 112 -26 0 -55 144 -243 186 -243 8 0 14 -6 12 -14 -3 -14 -157 -182 -359
-391 -53 -55 -109 -114 -124 -132 -21 -25 -41 -35 -84 -43 -73 -15 -114 -30
-178 -63 -63 -33 -172 -132 -198 -181 -11 -20 -23 -36 -27 -36 -7 0 -58 74
-58 85 0 2 -16 29 -35 59 -19 30 -35 57 -35 60 0 2 -21 40 -46 83 -26 43 -89
152 -141 242 -52 91 -102 175 -110 188 -14 22 -14 23 13 33 85 32 145 71 210
135 91 90 122 143 170 294 3 8 13 11 27 8 12 -3 60 -8 107 -12z m5259 -22 c25
-20 77 -67 114 -103 38 -36 73 -67 80 -69 6 -2 90 -72 186 -154 96 -82 292
-247 435 -365 144 -119 279 -232 301 -253 22 -20 63 -57 91 -81 261 -220 633
-570 613 -577 -7 -2 -63 1 -124 8 -107 11 -147 15 -465 46 -285 28 -354 34
-460 44 -324 31 -440 43 -483 51 -27 6 -61 10 -77 10 -42 0 -130 -25 -180 -50
-23 -12 -43 -20 -45 -18 -2 2 -13 57 -24 123 -11 66 -32 185 -46 265 -15 80
-30 170 -35 200 -5 30 -16 93 -25 140 -24 127 -36 197 -45 275 -23 190 -57
274 -152 371 -49 51 -50 52 -27 59 13 4 42 16 64 25 123 55 213 89 234 89 13
1 44 -15 70 -36z m-2053 -149 c22 -9 63 -27 92 -40 29 -13 55 -24 58 -24 3 0
30 -11 60 -25 30 -14 57 -25 59 -25 2 0 30 -12 62 -26 140 -63 164 -74 168
-74 2 0 30 -12 62 -26 32 -14 67 -29 78 -34 11 -4 41 -17 67 -29 26 -12 50
-21 53 -21 2 0 28 -11 57 -24 29 -13 60 -26 68 -29 8 -2 20 -24 27 -48 43
-159 159 -287 307 -339 l51 -18 3 -619 c1 -340 0 -623 -2 -630 -4 -9 -12 -9
-33 2 -15 8 -50 19 -78 26 -48 11 -197 79 -300 137 -27 16 -95 53 -150 82
-117 62 -171 91 -280 150 -44 24 -101 54 -127 68 -41 20 -48 29 -53 60 -25
168 -110 332 -227 438 -87 78 -255 166 -338 176 -34 4 -35 25 -16 172 28 210
36 268 51 377 8 59 15 120 15 137 0 27 6 34 54 57 62 30 127 88 150 134 9 17
18 31 20 31 2 0 21 -7 42 -16z m-4253 -172 c63 -48 173 -96 246 -108 30 -5 42
-13 54 -38 21 -41 77 -138 87 -151 4 -5 19 -30 32 -55 25 -45 125 -218 233
-405 32 -55 69 -120 83 -145 14 -25 33 -57 43 -72 11 -14 19 -28 19 -31 0 -3
15 -32 34 -64 21 -35 41 -89 51 -138 27 -128 75 -217 164 -306 231 -229 579
-226 806 7 59 60 123 170 139 235 l6 26 192 -50 c106 -27 209 -52 228 -57 19
-4 125 -31 235 -60 189 -49 221 -58 313 -79 82 -19 89 -26 102 -87 13 -61 18
-77 57 -163 25 -56 70 -127 99 -156 9 -9 15 -17 13 -19 -2 -2 -87 2 -189 9
-102 7 -268 18 -370 24 -102 6 -261 16 -355 22 -93 5 -267 17 -385 25 -118 8
-249 15 -291 16 -153 1 -292 -74 -366 -199 -25 -42 -40 -51 -58 -34 -6 5 -30
20 -55 33 -25 14 -94 53 -155 88 -165 94 -165 94 -230 130 -33 18 -72 41 -87
51 -14 11 -28 19 -31 19 -3 0 -54 28 -114 62 -59 33 -128 72 -153 86 -25 14
-78 45 -118 69 -41 24 -75 43 -77 43 -2 0 -38 20 -79 45 -42 25 -81 45 -86 45
-26 0 -16 26 29 77 60 67 87 120 105 210 38 179 -59 366 -234 455 -65 33 -65
33 -62 73 4 58 30 345 42 452 6 50 10 108 10 127 0 20 2 36 4 36 3 0 34 -22
69 -48z m-5164 -17 c133 -32 169 -40 256 -60 39 -8 89 -20 113 -25 23 -6 61
-14 85 -20 47 -10 131 -30 257 -59 107 -25 301 -69 360 -82 25 -6 97 -22 160
-38 l115 -27 7 -60 c4 -32 12 -104 18 -159 6 -55 15 -136 20 -180 5 -44 14
-132 20 -195 13 -125 28 -195 58 -262 75 -169 235 -311 415 -368 20 -6 37 -14
37 -16 0 -7 -178 -543 -192 -576 -6 -17 -18 -28 -29 -28 -41 0 -178 -55 -241
-97 -37 -24 -92 -71 -122 -105 -60 -66 -130 -197 -141 -265 -3 -23 -12 -46
-18 -51 -12 -10 -98 -24 -422 -72 -70 -10 -99 -14 -290 -45 -55 -8 -108 -17
-119 -18 -12 -1 -25 10 -38 33 -27 48 -85 106 -133 135 l-41 23 13 114 c7 62
16 151 19 198 8 102 14 116 56 125 62 13 176 75 232 126 76 69 128 151 161
252 24 76 27 96 23 179 -12 237 -143 416 -373 508 -79 32 -212 38 -308 15
-129 -30 -260 -121 -329 -227 -42 -65 -88 -171 -88 -203 0 -25 -14 -32 -120
-56 -30 -7 -94 -23 -142 -36 -48 -12 -89 -23 -91 -23 -3 0 -8 21 -12 48 -16
107 -80 196 -178 243 -47 23 -38 4 -152 314 -18 50 -47 126 -63 170 -17 44
-40 109 -52 145 -13 36 -26 69 -31 75 -16 16 -10 22 64 65 39 24 92 56 117 71
25 15 61 36 80 47 19 11 190 111 380 223 449 264 456 267 509 268 24 1 91 -10
150 -24z m1647 -375 c13 0 24 -6 23 -12 -1 -14 -87 -94 -93 -87 -2 2 -6 28 -8
57 l-5 54 30 -6 c16 -3 40 -6 53 -6z m9493 -225 c6 -33 22 -125 36 -205 15
-80 30 -170 35 -200 5 -30 16 -93 25 -140 19 -99 30 -169 50 -301 26 -177 70
-263 171 -335 51 -36 62 -49 55 -62 -10 -19 -22 -46 -111 -247 -34 -77 -75
-169 -91 -205 -16 -36 -32 -71 -37 -78 -4 -7 -38 -26 -77 -43 -72 -30 -147
-94 -188 -159 -12 -19 -30 -66 -42 -105 -16 -56 -55 -125 -190 -338 -125 -196
-176 -269 -195 -275 -14 -5 -50 -17 -80 -27 -78 -25 -172 -95 -222 -166 -23
-32 -45 -59 -48 -59 -7 0 -232 238 -244 257 -4 8 6 26 27 48 19 19 42 54 51
77 35 85 54 110 221 284 94 97 185 194 203 214 22 26 47 42 80 50 169 47 279
161 321 333 8 33 11 287 11 870 l0 823 45 13 c24 7 73 33 107 57 l63 44 7 -33
c4 -17 12 -59 17 -92z m-12611 -182 c6 -16 27 -73 47 -128 20 -55 54 -147 75
-205 21 -58 49 -136 64 -175 23 -63 24 -70 10 -78 -43 -24 -96 -84 -120 -135
-86 -181 36 -398 238 -427 42 -6 104 3 163 23 38 14 64 20 319 83 199 49 210
50 223 33 7 -10 13 -25 13 -34 0 -28 87 -164 137 -212 59 -58 144 -109 216
-132 l54 -17 -4 -47 c-2 -26 -8 -81 -13 -122 -5 -41 -12 -109 -15 -150 -8
-102 -10 -106 -62 -131 -62 -30 -134 -106 -158 -168 -18 -48 -22 -51 -80 -70
-66 -21 -303 -104 -395 -138 -45 -17 -274 -97 -325 -114 -33 -11 -69 -24 -80
-29 -11 -4 -56 -20 -100 -35 -44 -14 -87 -29 -95 -33 -8 -5 -40 -15 -70 -24
-30 -9 -82 -25 -115 -34 -33 -10 -64 -19 -70 -19 -5 0 -19 50 -32 110 -13 61
-27 128 -32 150 -49 219 -63 288 -71 337 -19 127 -99 237 -208 285 -84 37
-195 36 -277 -2 -73 -35 -135 -98 -170 -171 -21 -45 -27 -71 -27 -137 -1 -70
3 -90 27 -141 73 -154 245 -236 400 -191 32 9 68 23 80 31 25 16 35 10 35 -21
0 -12 9 -58 19 -101 11 -44 29 -124 40 -179 12 -55 28 -131 37 -170 9 -38 18
-83 20 -100 15 -100 50 -163 129 -231 37 -32 52 -51 45 -58 -5 -5 -10 -17 -10
-26 0 -9 -6 -25 -14 -35 -13 -18 -16 -19 -33 -4 -48 43 -153 79 -229 79 -79 0
-139 -22 -222 -83 -30 -22 -58 -35 -62 -31 -4 5 -18 27 -31 49 -12 22 -49 87
-82 145 -33 58 -71 125 -85 150 -14 25 -33 59 -42 75 -9 17 -54 95 -100 175
-58 103 -88 166 -100 218 -52 206 -215 336 -420 335 -180 -1 -346 -127 -395
-298 -9 -33 -21 -74 -26 -91 -5 -17 -9 -48 -9 -69 0 -21 -4 -54 -10 -74 -5
-20 -21 -99 -35 -176 -14 -77 -30 -158 -35 -180 -12 -53 -35 -174 -50 -255
-21 -122 -28 -140 -55 -140 -30 0 -152 -44 -204 -73 -117 -67 -217 -171 -270
-282 -13 -28 -26 -57 -30 -65 -27 -54 -43 -167 -38 -263 8 -177 67 -305 198
-438 62 -63 92 -85 170 -122 52 -25 123 -51 158 -58 52 -11 65 -18 74 -39 33
-84 58 -143 68 -162 5 -10 9 -22 9 -28 0 -5 11 -33 24 -62 35 -78 166 -402
166 -410 0 -5 -5 -8 -11 -8 -21 0 -98 -41 -145 -77 -75 -56 -111 -101 -152
-185 -20 -43 -41 -78 -47 -78 -5 0 -40 11 -77 25 -38 14 -101 37 -140 51 -40
14 -82 29 -93 34 -11 4 -33 13 -50 18 -77 26 -183 65 -212 78 -40 18 -39 13
-59 339 -22 381 -32 523 -44 684 -10 139 -9 162 10 261 4 25 14 79 20 120 12
75 50 277 71 380 10 48 23 99 59 235 4 17 28 82 52 145 43 108 54 135 114 268
13 29 24 56 24 60 0 5 8 26 19 48 18 39 72 193 108 309 14 48 18 95 19 240 0
99 4 198 9 220 21 108 172 369 320 555 263 329 760 792 998 927 66 38 135 78
156 90 20 12 49 30 65 39 53 30 309 215 616 446 107 81 198 147 202 148 3 0
11 -12 16 -27z m4494 -340 c209 -52 305 -80 299 -87 -24 -29 -49 -88 -66 -150
-16 -60 -17 -75 -6 -125 21 -96 38 -183 51 -261 7 -41 18 -109 25 -150 8 -41
19 -106 25 -145 6 -38 15 -85 20 -103 7 -27 5 -35 -13 -47 -12 -8 -27 -15 -35
-15 -31 0 -141 -69 -197 -125 -76 -74 -105 -120 -140 -218 l-28 -77 -66 0
c-36 0 -138 -7 -226 -15 -201 -18 -255 -19 -259 -2 -30 113 -56 169 -118 253
-69 93 -196 181 -306 213 -38 11 -42 15 -36 34 45 151 196 582 206 589 7 4 24
8 38 8 58 1 207 69 279 128 96 78 183 208 217 323 8 27 18 49 21 49 4 0 145
-35 315 -77z m643 -163 c3 -5 14 -10 24 -10 36 0 81 -77 81 -138 0 -39 -36
-106 -67 -123 -21 -12 -46 -15 -97 -11 -60 4 -74 8 -98 32 -26 26 -28 34 -28
108 0 72 2 82 26 106 15 14 35 26 45 26 10 0 21 5 24 10 3 6 24 10 45 10 21 0
42 -4 45 -10z m8092 -70 c57 -36 82 -141 46 -198 -24 -38 -50 -62 -67 -62 -8
0 -18 -4 -21 -10 -3 -5 -26 -10 -51 -10 -24 0 -44 5 -44 10 0 6 -9 10 -19 10
-11 0 -33 17 -50 37 -27 33 -31 45 -31 100 0 60 2 65 40 103 l39 39 70 -4 c38
-2 78 -9 88 -15z m408 -14 c72 -8 184 -19 250 -26 244 -22 323 -30 465 -44 80
-8 199 -20 265 -26 66 -6 156 -15 200 -20 44 -6 101 -10 127 -10 42 0 50 -4
83 -42 29 -34 253 -367 312 -463 28 -45 64 -107 137 -235 43 -74 87 -148 98
-163 11 -16 17 -31 14 -34 -5 -6 -386 6 -886 28 -369 15 -648 14 -690 -3 -126
-51 -223 -138 -270 -242 -17 -36 -30 -72 -30 -80 0 -16 -17 -24 -80 -36 -25
-5 -76 -16 -115 -25 -345 -75 -341 -75 -336 -55 18 67 5 171 -32 244 -25 50
-107 137 -152 162 -19 10 -35 24 -35 30 0 6 16 47 36 90 19 43 42 93 49 109 7
17 27 60 44 98 17 37 31 69 31 72 0 2 13 32 30 67 16 35 34 76 39 92 7 17 24
32 48 42 86 34 110 49 158 98 86 87 124 204 104 324 -5 31 -9 58 -9 60 0 3 7
3 145 -12z m-7248 -72 c12 -8 37 -22 55 -32 18 -10 53 -30 78 -44 25 -14 63
-35 85 -48 22 -12 54 -30 70 -40 17 -9 55 -31 85 -47 30 -17 147 -83 259 -147
112 -64 223 -127 245 -140 23 -13 111 -63 196 -111 85 -48 171 -97 190 -108
196 -110 208 -118 219 -164 22 -87 84 -172 165 -228 l55 -38 -116 -170 c-174
-256 -163 -243 -214 -261 -26 -10 -56 -26 -67 -37 -12 -10 -25 -19 -29 -19 -7
0 -80 127 -256 444 -16 28 -39 69 -52 91 -12 22 -33 58 -45 80 -12 22 -33 58
-45 80 -12 22 -26 63 -29 91 -38 311 -249 549 -559 629 -32 8 -71 15 -86 15
-21 0 -58 25 -147 101 -163 138 -156 131 -114 123 19 -4 45 -13 57 -20z m4777
-159 c32 -17 176 -94 251 -135 108 -58 202 -109 243 -130 l42 -22 -43 -47
c-45 -51 -97 -147 -97 -179 0 -23 -21 -34 -226 -117 -76 -32 -159 -66 -184
-77 -25 -11 -54 -24 -65 -28 -11 -4 -38 -15 -60 -25 -22 -9 -49 -20 -60 -25
-11 -4 -40 -17 -65 -28 -25 -11 -119 -50 -210 -87 -91 -37 -184 -76 -207 -86
-24 -11 -63 -28 -88 -39 -25 -11 -48 -20 -51 -20 -6 0 -26 -8 -119 -50 -102
-46 -250 -100 -272 -100 -45 0 -151 -57 -200 -108 -27 -27 -55 -59 -63 -71
l-15 -21 -41 32 c-22 18 -63 52 -90 75 -45 38 -180 151 -229 192 -445 369
-592 491 -615 511 -27 24 -70 134 -57 147 3 3 106 -2 229 -11 123 -8 304 -20
403 -26 99 -6 248 -15 330 -20 83 -5 265 -17 405 -25 140 -9 285 -20 322 -25
72 -11 163 -1 273 27 141 37 292 138 383 255 44 57 122 205 122 231 0 20 11
47 19 47 3 0 19 -7 35 -15z m-6127 -197 c27 -12 67 -44 438 -343 273 -220 320
-259 326 -268 4 -5 10 -32 13 -58 25 -186 160 -392 324 -493 34 -22 62 -43 62
-48 0 -5 -10 -12 -22 -17 -19 -7 -496 -241 -915 -448 l-92 -45 -46 37 -46 38
3 96 3 95 62 22 c278 100 429 408 334 681 -61 175 -203 311 -371 354 -55 14
-55 15 -69 109 -12 78 -37 222 -47 268 -7 36 -1 39 43 20z m6543 -579 c0 -23
89 -136 129 -163 23 -16 41 -32 41 -36 0 -10 -28 -41 -147 -163 l-105 -107
-44 38 c-55 49 -167 88 -208 72 -15 -5 -37 -10 -50 -10 -61 0 -163 -81 -206
-164 -16 -31 -30 -46 -43 -46 -11 0 -76 -11 -146 -25 -69 -14 -148 -29 -176
-35 -27 -5 -82 -16 -122 -25 -40 -8 -78 -15 -86 -15 -7 0 -23 22 -35 48 -12
27 -36 62 -52 78 -31 30 -37 44 -20 44 5 0 33 11 62 24 117 53 148 66 154 66
6 0 21 6 114 48 25 11 119 50 210 87 91 37 185 76 210 87 25 11 64 29 87 39
24 11 46 19 49 19 3 0 20 6 37 14 180 80 312 134 330 135 9 1 17 -4 17 -10z
m-2863 -94 c43 -37 98 -83 123 -104 25 -21 164 -136 310 -256 146 -120 283
-235 306 -254 22 -20 72 -62 111 -94 56 -45 72 -65 76 -91 15 -96 107 -213
207 -265 32 -17 65 -31 73 -31 10 0 16 -18 20 -57 8 -70 21 -169 43 -323 24
-172 32 -244 27 -253 -2 -4 -16 -1 -31 7 -80 42 -202 62 -285 46 -72 -13 -135
-33 -180 -56 -30 -16 -61 -27 -122 -44 -16 -5 -106 -32 -200 -60 -93 -28 -185
-56 -202 -61 -18 -5 -48 -13 -65 -18 -18 -5 -94 -28 -168 -50 -154 -46 -160
-47 -160 -23 0 19 -27 96 -55 157 -31 67 -122 180 -188 234 -66 55 -170 110
-252 135 -75 22 -196 39 -246 33 -24 -2 -125 -14 -224 -26 -173 -20 -251 -28
-490 -51 -60 -6 -191 -20 -289 -30 -99 -11 -181 -18 -183 -16 -4 4 44 23 92
36 17 5 143 47 280 94 432 149 817 278 872 292 77 20 124 47 167 94 110 122
106 298 -8 412 l-48 49 68 99 c38 55 102 148 142 207 71 105 98 132 135 133
39 0 138 64 192 121 30 33 55 64 55 70 0 19 21 7 97 -56z m6193 -155 c179 -6
430 -14 558 -17 l232 -6 26 -26 c22 -21 191 -245 346 -456 52 -71 176 -265
170 -265 -4 0 -39 7 -77 15 -39 9 -90 20 -115 25 -25 5 -76 17 -115 25 -38 9
-115 25 -170 36 -55 12 -118 25 -140 29 -41 9 -142 34 -205 51 -123 33 -179
38 -258 24 -42 -7 -86 -17 -97 -20 -85 -30 -187 -96 -239 -156 -20 -24 -38
-41 -40 -38 -2 2 -29 85 -61 184 -31 99 -72 225 -91 281 -19 55 -34 110 -34
122 0 28 -24 117 -44 164 -21 48 -20 49 7 43 12 -3 168 -10 347 -15z m-7710
-61 c0 -5 10 -26 23 -47 13 -20 37 -62 54 -92 16 -30 80 -144 141 -252 61
-108 116 -206 121 -217 6 -12 16 -30 21 -41 6 -11 10 -27 10 -35 0 -9 10 -34
21 -57 20 -40 21 -42 3 -55 -10 -7 -26 -13 -36 -13 -10 0 -26 -4 -36 -10 -9
-5 -105 -39 -212 -75 -107 -35 -307 -104 -445 -151 -137 -47 -262 -88 -276
-91 -20 -4 -30 1 -45 25 -84 130 -269 169 -404 86 -71 -43 -140 -144 -140
-203 0 -16 -5 -33 -11 -37 -6 -3 -8 -16 -4 -28 8 -29 23 -119 40 -253 8 -61
17 -123 20 -136 6 -21 -1 -27 -58 -55 -74 -37 -162 -124 -194 -193 -11 -24
-26 -72 -33 -106 -12 -61 -11 -82 10 -208 5 -33 14 -91 20 -130 5 -38 17 -117
26 -175 8 -58 19 -134 24 -170 5 -36 12 -86 15 -112 14 -89 -23 -48 -183 208
-129 205 -156 254 -167 306 -27 131 -80 225 -170 305 -55 49 -130 92 -185 106
-51 14 -50 2 -58 371 l-7 347 46 39 c25 21 52 53 59 70 12 29 41 45 269 157
141 69 411 202 601 296 458 225 476 233 540 242 152 20 292 82 395 177 62 57
134 149 165 210 10 22 16 25 27 17 7 -6 13 -15 13 -20z m-5643 -155 c31 -24
33 -28 33 -89 0 -61 -2 -65 -33 -89 -37 -28 -78 -33 -119 -14 -37 18 -50 44
-53 105 -2 48 1 57 27 84 39 39 96 40 145 3z m2892 -32 c26 -93 94 -195 183
-268 43 -36 140 -87 188 -98 45 -10 48 -18 51 -113 l3 -91 -41 -41 c-23 -22
-50 -55 -59 -73 -18 -35 -33 -49 -74 -70 -14 -7 -49 -27 -78 -45 -29 -18 -55
-33 -57 -33 -3 0 -34 -17 -68 -38 -60 -37 -98 -60 -257 -152 -41 -24 -83 -51
-94 -59 -17 -15 -19 -14 -30 3 -65 108 -155 176 -267 200 -16 4 -60 43 -115
103 -49 54 -110 121 -135 148 -25 28 -64 70 -86 94 l-40 44 61 30 c170 84 275
208 330 387 l23 75 89 7 c49 4 136 11 194 16 58 5 142 10 187 11 l82 1 10 -38z
m-1783 -49 c48 -222 253 -414 489 -459 54 -11 76 -20 95 -42 14 -15 66 -72
115 -127 50 -55 106 -118 126 -140 78 -85 94 -108 80 -113 -48 -16 -132 -123
-161 -203 -20 -58 -20 -59 -80 -91 -124 -68 -166 -91 -175 -98 -5 -4 -35 -21
-65 -37 -144 -78 -200 -109 -260 -143 -36 -20 -94 -53 -130 -72 -114 -62 -165
-90 -175 -98 -28 -20 -128 -70 -141 -70 -8 0 -14 7 -14 17 0 25 -50 122 -91
178 -48 66 -101 115 -169 158 -58 36 -190 87 -228 87 -16 0 -23 8 -27 28 -3
15 -10 43 -15 62 -19 70 -52 196 -60 230 -5 19 -13 51 -18 70 -14 50 -64 241
-107 405 l-36 140 22 15 c58 40 120 106 141 150 28 59 -5 50 398 110 36 6 135
21 220 35 267 42 258 42 266 8z m11055 -64 c5 -8 16 -32 25 -53 29 -64 128
-162 200 -197 35 -18 64 -33 64 -34 0 -1 -9 -31 -20 -66 -43 -139 -106 -346
-121 -396 -9 -30 -18 -43 -36 -48 -114 -28 -233 -129 -283 -239 -20 -46 -35
-66 -47 -66 -10 0 -169 7 -353 15 -184 8 -401 15 -482 16 -82 2 -148 5 -148 7
0 2 14 33 31 68 77 163 69 319 -26 469 -39 62 -124 140 -182 166 -23 11 -43
22 -43 25 0 5 67 111 154 242 22 34 44 62 47 62 3 0 23 -16 44 -35 75 -72 234
-127 304 -107 99 29 141 40 196 52 33 6 87 18 120 25 33 8 94 21 135 29 41 9
129 27 195 42 229 49 214 47 226 23z m-12517 -107 c24 -47 89 -106 147 -134
55 -27 55 -27 72 -95 15 -59 47 -182 104 -393 8 -30 18 -71 23 -90 4 -19 15
-62 24 -95 46 -166 66 -247 66 -264 0 -14 -16 -23 -64 -39 -121 -40 -248 -139
-313 -245 -63 -102 -85 -160 -103 -277 -9 -60 -102 -411 -140 -530 -4 -14 -16
-52 -25 -85 -9 -33 -20 -71 -25 -85 -4 -14 -13 -43 -19 -65 -104 -380 -93
-355 -165 -378 -96 -29 -174 -87 -241 -180 l-20 -28 -134 172 c-122 157 -135
179 -152 241 -26 103 -63 170 -130 237 -59 59 -152 114 -217 127 -29 6 -30 10
-52 108 -12 55 -26 121 -31 146 -5 25 -15 77 -24 115 -31 139 -50 232 -61 297
-6 36 -6 37 58 77 35 22 75 55 88 73 51 68 57 79 91 211 19 71 124 377 131
380 2 1 26 13 53 26 69 34 121 86 153 151 22 46 27 69 27 135 0 67 -4 88 -27
132 -30 59 -29 61 47 86 28 8 84 28 125 42 90 33 321 114 440 156 64 22 259
91 277 98 1 1 9 -12 17 -27z m13331 -217 c26 -82 67 -208 90 -280 24 -71 50
-170 59 -220 9 -49 21 -99 25 -110 54 -130 131 -228 220 -280 28 -16 51 -34
51 -40 0 -5 -13 -19 -29 -30 -16 -11 -80 -57 -143 -101 -62 -45 -131 -87 -153
-94 -144 -45 -178 -63 -244 -129 -60 -59 -86 -100 -119 -182 l-10 -26 -233
-17 c-129 -9 -288 -21 -354 -26 -66 -5 -192 -14 -280 -20 -88 -6 -248 -18
-355 -25 -107 -8 -262 -19 -345 -25 -82 -6 -180 -13 -217 -15 -38 -3 -68 -3
-68 -1 0 2 13 32 29 67 16 35 32 78 35 95 l7 32 112 11 c62 6 195 18 297 26
202 16 373 30 550 45 63 5 205 17 315 25 110 9 223 21 250 27 159 35 290 172
325 341 22 107 -17 250 -92 342 -32 38 -128 107 -166 119 -15 5 -21 13 -18 24
8 30 77 256 92 302 8 25 24 78 37 119 22 72 23 74 67 88 67 21 120 50 165 88
22 18 43 30 46 27 3 -4 27 -74 54 -157z m-3525 110 c30 -49 97 -101 150 -117
49 -14 66 -30 253 -233 61 -66 138 -149 172 -185 50 -53 63 -75 74 -120 18
-76 57 -156 102 -212 42 -50 46 -58 27 -58 -62 0 -248 -156 -296 -250 -116
-223 -74 -485 105 -651 146 -136 268 -168 543 -144 164 14 358 29 539 41 l94
6 -46 -52 c-43 -48 -87 -138 -87 -179 0 -10 -41 -74 -92 -142 -50 -68 -136
-185 -191 -259 -55 -74 -122 -165 -150 -202 l-50 -67 -76 -16 c-158 -35 -298
-127 -386 -252 -27 -40 -53 -72 -56 -72 -4 -1 -18 20 -32 47 -14 26 -59 110
-101 187 -42 77 -76 148 -76 157 0 27 -38 108 -71 149 -17 22 -52 51 -77 66
-56 32 -62 40 -57 73 2 14 9 212 16 440 11 380 10 419 -5 463 -24 71 -43 104
-87 152 -49 53 -113 87 -204 110 -58 15 -77 16 -120 6 -72 -17 -123 -40 -178
-78 -26 -18 -49 -33 -52 -33 -2 0 -35 -14 -72 -31 -38 -17 -97 -43 -133 -57
-36 -14 -69 -29 -74 -33 -20 -18 -23 -6 -24 89 0 53 -5 110 -11 125 -6 15 -16
67 -22 115 -5 48 -14 119 -19 157 -9 69 -14 107 -45 335 -17 123 -32 234 -41
315 l-6 50 49 22 c26 12 66 37 87 54 45 38 112 136 121 179 7 32 18 36 135 59
30 6 129 26 220 45 219 45 223 45 250 1z m4900 -340 c41 -9 93 -20 115 -25 22
-4 96 -20 165 -35 69 -15 139 -30 157 -32 18 -3 37 -10 42 -17 21 -26 127
-323 205 -576 39 -127 43 -142 82 -305 19 -82 46 -195 59 -250 23 -98 52 -219
80 -340 22 -97 63 -285 75 -345 39 -201 52 -272 60 -325 15 -105 29 -197 45
-300 16 -103 30 -202 45 -315 5 -36 16 -117 25 -180 9 -63 20 -151 26 -195 36
-280 58 -436 64 -445 11 -18 -17 -20 -122 -11 -59 6 -184 15 -278 21 -93 6
-191 13 -218 16 l-47 6 25 30 c90 107 124 312 75 457 -25 75 -72 150 -126 205
-38 37 -116 96 -129 96 -3 0 -17 7 -30 16 l-24 16 48 66 c37 52 60 74 107 98
69 37 118 95 139 167 19 64 19 87 -1 148 -17 52 -95 149 -120 149 -8 0 -14 6
-14 13 0 20 18 219 35 392 8 88 20 210 26 270 14 150 27 280 35 343 15 117
-37 253 -131 347 -63 63 -117 95 -201 120 l-51 15 -149 220 c-207 305 -204
299 -226 392 -10 45 -22 93 -25 104 -6 24 -2 24 157 -11z m-17077 -52 c24 -43
54 -94 64 -113 11 -19 60 -105 108 -190 87 -154 95 -169 150 -265 52 -90 74
-140 75 -163 0 -41 53 -136 100 -182 40 -39 73 -59 160 -100 8 -4 18 -25 22
-46 4 -21 18 -93 32 -159 48 -223 64 -300 80 -375 9 -41 18 -84 22 -96 4 -17
-2 -23 -38 -35 -140 -46 -262 -188 -299 -349 -13 -59 -51 -114 -224 -326 -49
-61 -139 -174 -200 -252 -60 -77 -115 -141 -120 -141 -6 -1 -19 15 -30 35 -50
94 -212 210 -316 228 -21 4 -41 12 -47 19 -5 6 -64 147 -131 312 -67 165 -126
309 -131 320 -19 40 -15 46 40 66 130 46 217 107 307 214 138 166 183 411 114
620 -66 200 -236 365 -444 429 l-58 18 6 42 c4 22 11 57 15 76 5 19 14 64 20
100 6 36 18 94 25 130 8 36 19 93 26 128 7 34 17 62 21 62 4 0 8 -4 8 -8 0
-10 71 -51 120 -70 47 -19 215 -21 260 -3 87 33 135 64 183 119 16 17 30 32
32 32 2 0 23 -35 48 -77z m6162 -69 c0 -22 -30 -26 -31 -4 -1 22 6 32 19 27 7
-2 12 -12 12 -23z m-153 -187 l37 -32 3 -346 4 -347 -71 -27 c-88 -35 -139
-69 -201 -138 -181 -198 -178 -502 6 -695 90 -95 186 -143 321 -162 165 -24
369 65 461 200 18 27 36 50 39 50 4 0 41 -55 84 -122 l77 -122 -23 -15 c-37
-23 -116 -109 -131 -141 -15 -35 -20 -35 -107 -15 -85 20 -121 29 -261 60 -63
15 -153 35 -200 46 -125 29 -210 49 -255 59 -152 34 -276 62 -310 70 -22 5
-74 17 -115 26 -41 9 -80 18 -86 20 -6 1 -23 39 -38 84 -27 84 -73 166 -128
226 -44 48 -151 118 -215 140 -29 10 -53 23 -53 29 0 5 13 46 29 90 16 44 53
153 83 242 l53 162 59 22 c111 42 197 133 233 247 13 41 24 57 48 69 33 17
114 64 212 125 34 21 65 38 68 38 2 0 29 16 59 35 30 19 57 35 60 35 3 0 30
16 60 35 30 19 58 35 61 35 3 0 23 11 43 25 20 14 41 25 47 25 5 0 27 -15 47
-33z m1498 -42 c28 -15 30 -19 30 -74 0 -51 -3 -61 -25 -75 -58 -38 -135 4
-135 73 1 43 14 62 55 77 41 16 42 16 75 -1z m7689 -120 c25 -14 58 -43 74
-65 24 -34 27 -46 26 -117 -1 -89 -14 -119 -73 -167 -36 -29 -41 -31 -123 -29
-78 2 -89 5 -122 31 -20 16 -40 38 -46 50 -5 12 -13 22 -17 22 -15 0 -9 165 7
196 46 94 178 131 274 79z m1804 -129 c48 -73 87 -137 87 -142 0 -5 -15 -16
-32 -23 -18 -8 -60 -42 -94 -75 -64 -64 -103 -135 -123 -222 -10 -41 -28 -70
-88 -140 -42 -49 -81 -92 -87 -96 -11 -6 -103 1 -272 23 -87 11 -93 13 -99 37
-15 62 -52 121 -111 180 -35 35 -62 68 -59 72 7 12 261 192 298 212 18 9 65
24 106 33 40 9 100 31 133 48 73 39 166 122 205 182 15 25 33 45 38 44 6 0 49
-60 98 -133z m-8514 -68 c-57 -77 -119 -228 -119 -289 0 -15 -4 -30 -8 -33 -7
-4 -202 -46 -307 -66 -22 -4 -105 -22 -184 -39 -80 -17 -145 -30 -146 -28 -1
1 -12 24 -24 50 -34 71 -112 151 -183 186 -34 17 -67 31 -74 31 -14 0 -19 14
-28 86 l-6 41 70 1 c38 0 108 5 157 11 110 13 372 40 708 71 66 6 129 13 140
14 30 3 30 0 4 -36z m5691 -68 c479 -16 520 -19 520 -37 0 -8 11 -37 25 -65
14 -27 25 -51 25 -52 0 -4 -439 -42 -750 -66 -80 -6 -185 -15 -234 -20 -49 -5
-93 -7 -98 -4 -4 3 -8 14 -8 24 0 32 -48 131 -91 188 l-41 54 168 -6 c93 -3
311 -11 484 -16z m-9533 -91 c28 -37 122 -109 142 -109 20 0 16 -13 -89 -310
-29 -80 -55 -158 -59 -174 -6 -26 -14 -31 -66 -46 -165 -47 -287 -139 -365
-275 -40 -71 -56 -123 -80 -265 -12 -69 -25 -143 -30 -165 -4 -22 -13 -62 -18
-90 -6 -27 -18 -86 -27 -130 -10 -44 -21 -98 -25 -120 -4 -22 -19 -96 -34
-165 -15 -69 -31 -147 -36 -175 -5 -27 -19 -93 -30 -145 -11 -52 -32 -149 -45
-215 -14 -66 -36 -174 -50 -240 -62 -297 -78 -373 -85 -410 -4 -22 -20 -98
-35 -170 -15 -71 -31 -148 -35 -170 -21 -107 -43 -205 -74 -318 -18 -67 -21
-201 -5 -261 45 -167 181 -319 333 -370 54 -19 181 -37 212 -31 163 31 234 64
324 151 66 63 127 164 144 237 6 26 10 28 44 23 20 -3 93 -8 162 -11 233 -10
514 -25 687 -37 139 -9 184 -9 230 2 124 28 226 98 289 196 36 57 64 126 64
161 0 15 58 83 181 213 166 173 199 201 199 167 0 -11 80 -226 150 -402 5 -11
36 -94 70 -185 33 -91 65 -173 71 -182 18 -34 10 -46 -37 -53 -167 -25 -370
-134 -513 -276 -169 -168 -259 -357 -291 -609 -11 -85 -28 -136 -167 -485 -85
-214 -160 -402 -166 -417 -9 -21 -22 -30 -62 -39 -96 -22 -195 -77 -265 -148
-64 -64 -120 -149 -133 -201 -12 -46 -19 -50 -57 -37 -19 7 -39 15 -45 18 -5
3 -37 14 -69 25 -57 18 -60 21 -86 79 -18 41 -44 76 -80 108 -77 69 -108 80
-220 81 -79 0 -102 -3 -136 -21 -88 -47 -148 -117 -179 -212 -47 -143 36 -320
182 -388 43 -20 53 -29 58 -56 3 -18 18 -80 32 -139 15 -59 24 -110 21 -113
-3 -3 -36 8 -74 25 -38 18 -85 38 -104 47 -19 8 -42 18 -50 22 -8 4 -40 15
-71 26 -60 20 -64 25 -184 235 -11 19 -54 91 -95 160 -41 69 -77 130 -79 135
-2 6 -26 45 -53 87 -26 43 -48 79 -48 81 0 2 -36 64 -80 137 -44 73 -80 135
-80 137 0 2 -16 29 -35 59 -19 30 -35 57 -35 59 0 3 -12 24 -27 48 -25 40
-195 326 -234 394 -10 17 -29 50 -43 72 -15 22 -26 43 -26 46 0 2 -16 30 -36
61 -35 54 -39 84 -11 84 7 0 35 22 63 49 157 154 158 379 1 532 -48 47 -130
89 -197 101 -25 4 -144 10 -265 13 -121 3 -326 9 -455 15 -129 5 -386 15 -570
20 -184 6 -341 13 -348 15 -23 8 17 54 59 66 21 7 46 20 54 29 9 10 46 77 84
151 128 253 196 379 203 379 4 0 17 -21 29 -47 14 -29 62 -87 119 -143 137
-137 257 -193 460 -215 113 -12 303 38 417 110 240 152 371 434 335 723 -7 53
-12 133 -12 177 0 44 -4 150 -10 235 -9 142 -24 434 -50 970 -6 113 -15 288
-20 390 -5 102 -11 230 -12 284 l-3 100 32 7 c128 26 270 120 353 234 56 77
110 202 110 255 0 36 23 62 85 95 28 15 79 43 115 63 36 19 94 52 130 72 36
20 94 53 130 72 114 62 165 90 175 98 10 7 33 20 205 113 41 22 100 55 130 73
l55 33 17 -22 c10 -12 30 -38 45 -58z m5783 -143 c0 -3 -5 -17 -11 -32 -16
-43 -14 -211 4 -270 56 -188 211 -332 407 -378 82 -20 122 -20 206 -1 84 20
143 47 222 103 34 24 99 60 145 79 100 42 126 53 200 87 32 14 61 26 66 26 5
0 14 -21 20 -47 18 -76 51 -131 108 -183 29 -27 53 -51 53 -55 0 -4 -89 -102
-197 -218 -108 -117 -220 -237 -247 -267 -188 -203 -271 -290 -278 -290 -5 0
-13 12 -18 26 -16 42 -71 116 -121 164 -92 87 -211 143 -337 159 -37 5 -110
23 -162 40 -112 36 -108 35 -320 101 -91 29 -190 60 -220 70 -30 10 -129 41
-220 70 -91 28 -176 55 -190 60 -14 5 -40 12 -57 15 -18 4 -33 10 -33 15 0 5
22 24 48 44 137 100 242 264 275 429 7 33 19 64 27 68 8 4 49 17 90 29 41 12
113 33 160 47 47 14 119 36 160 48 41 13 104 32 140 43 71 22 80 24 80 18z
m-2050 -283 c48 -185 170 -344 340 -446 63 -38 205 -87 250 -87 50 0 159 -30
425 -115 39 -13 124 -39 190 -60 66 -20 145 -45 175 -55 30 -10 129 -41 220
-70 91 -28 175 -55 188 -60 13 -6 31 -10 42 -10 36 0 29 -17 -39 -87 -67 -70
-141 -195 -141 -240 0 -10 -6 -27 -12 -36 -12 -15 -23 -16 -103 -7 -49 5 -182
16 -295 25 -113 9 -257 20 -320 25 -63 5 -173 14 -245 19 -440 35 -527 45
-532 60 -3 9 -18 44 -34 78 -50 104 -150 181 -284 219 -47 13 -80 34 -160 98
-55 44 -105 86 -111 91 -6 6 -94 77 -196 159 l-185 150 62 60 c57 56 115 152
115 189 0 8 14 17 33 20 17 4 64 13 102 22 39 8 147 31 240 51 94 19 186 39
205 43 56 14 57 13 70 -36z m7086 -240 c47 -148 173 -259 334 -297 56 -12 76
-13 140 -1 90 15 117 26 193 79 72 49 136 136 162 220 4 15 11 17 37 12 17 -3
62 -9 100 -13 60 -5 83 -15 61 -25 -5 -1 -46 -47 -92 -101 -72 -83 -91 -99
-130 -111 -122 -36 -219 -113 -268 -214 -22 -45 -29 -53 -47 -47 -12 3 -34 10
-51 15 -16 4 -55 15 -85 23 -30 9 -95 27 -145 40 -49 14 -126 34 -170 47 -44
12 -93 25 -110 30 -16 4 -55 15 -85 23 -94 27 -242 67 -320 88 -89 24 -117 32
-190 52 -158 45 -253 70 -327 89 -46 11 -83 24 -83 29 0 5 26 9 58 9 31 0 104
4 162 9 58 6 213 17 345 26 132 10 274 20 315 25 139 14 190 12 196 -7z m1463
-53 c53 -5 150 -16 216 -25 128 -17 178 -14 264 16 l53 18 -6 -44 c-4 -24 -11
-90 -16 -147 -13 -155 -31 -346 -38 -408 -6 -43 -12 -57 -30 -66 -30 -15 -102
-85 -102 -99 0 -30 -50 -65 -135 -94 -49 -16 -135 -46 -190 -66 -55 -20 -161
-58 -235 -85 -74 -26 -169 -60 -210 -75 -41 -15 -85 -29 -98 -32 -12 -3 -25
-9 -28 -14 -3 -5 -16 -9 -29 -9 -13 0 -26 -4 -29 -9 -3 -5 -16 -11 -28 -14
-13 -3 -56 -17 -96 -31 -58 -21 -77 -24 -88 -15 -8 6 -14 17 -14 23 0 6 60 45
132 86 160 91 166 93 248 114 86 22 164 76 222 154 139 184 98 434 -94 577
-21 15 -38 30 -38 34 0 3 10 17 23 31 12 14 55 65 96 114 l75 88 40 -6 c22 -4
83 -11 135 -16z m-14442 -119 c76 -88 218 -171 334 -195 23 -5 27 -12 33 -58
3 -29 6 -91 6 -138 0 -47 4 -155 10 -240 5 -85 17 -290 25 -455 8 -165 20
-392 25 -505 6 -113 12 -235 14 -272 2 -38 1 -68 -3 -68 -3 0 -17 10 -31 23
-116 105 -322 167 -505 151 -240 -20 -466 -174 -575 -392 -37 -74 -54 -130
-70 -230 -13 -77 -15 -81 -249 -534 -47 -93 -89 -168 -92 -168 -3 0 -25 18
-48 40 -23 22 -48 40 -56 40 -9 0 -17 15 -21 40 -5 30 -16 48 -43 70 -19 17
-40 30 -46 30 -6 0 -29 8 -51 19 -21 10 -61 29 -89 41 -83 37 -137 61 -195 88
-30 13 -82 37 -115 52 -33 15 -70 30 -82 34 -30 10 -29 16 11 54 50 47 92 115
112 183 20 66 36 83 129 134 28 15 79 44 115 65 36 21 81 47 100 57 19 11 85
48 145 83 154 88 164 94 217 123 25 14 64 37 87 51 22 14 43 26 45 26 2 0 50
27 106 60 56 33 103 60 105 60 2 0 38 20 79 45 42 25 79 45 81 45 3 0 28 15
57 34 31 19 83 40 123 49 95 22 130 37 201 90 129 95 206 273 183 422 -14 83
-27 120 -72 192 -45 73 -110 131 -196 173 -34 17 -59 35 -56 40 5 8 51 165 96
325 6 22 15 51 19 65 5 14 16 52 25 85 9 33 21 71 25 85 5 14 14 49 21 78 7
28 15 52 18 52 3 0 25 -22 48 -49z m4763 13 c57 -17 80 -34 514 -389 54 -44
107 -87 118 -96 20 -16 20 -16 -17 -39 -68 -42 -131 -140 -166 -261 -12 -40
-44 -77 -216 -254 l-201 -207 -69 88 c-37 48 -75 96 -84 108 -16 19 -14 22 33
65 113 101 153 232 118 386 -6 27 -16 83 -21 125 -17 125 -28 199 -49 340 -21
142 -22 150 -17 150 2 0 27 -7 57 -16z m4947 -96 c-4 -46 -7 -162 -7 -259 l0
-176 -45 -23 c-77 -40 -165 -156 -165 -217 0 -9 -49 -84 -108 -167 -149 -207
-314 -436 -381 -527 -31 -42 -128 -176 -216 -298 -87 -121 -165 -221 -172
-221 -20 0 -121 -47 -150 -70 -15 -11 -30 -17 -34 -13 -8 8 -41 98 -131 353
-23 63 -45 121 -51 128 -13 17 -5 23 73 55 114 48 221 142 286 252 27 46 58
138 69 204 6 37 20 58 79 121 39 41 145 156 236 255 91 98 197 213 236 255 62
66 231 250 337 366 37 40 78 61 126 63 24 1 24 1 18 -81z m2453 -101 c30 -9
96 -27 145 -40 125 -34 240 -66 305 -84 30 -8 69 -19 85 -23 17 -5 73 -20 125
-35 52 -14 129 -35 170 -46 89 -24 117 -32 190 -52 30 -9 91 -25 135 -37 154
-41 158 -43 175 -92 23 -66 65 -133 106 -166 l36 -30 -48 -27 c-27 -16 -69
-40 -94 -55 -91 -55 -162 -90 -183 -90 -28 0 -114 -49 -150 -86 -49 -49 -58
-79 -68 -223 -5 -75 -14 -199 -19 -276 -6 -77 -13 -188 -17 -247 -4 -82 -9
-108 -20 -108 -30 0 -141 -59 -186 -100 -26 -23 -49 -41 -51 -39 -2 2 -27 63
-55 134 -29 72 -56 140 -61 153 -20 46 -30 71 -80 197 -28 72 -55 139 -60 150
-4 11 -36 90 -70 175 -33 85 -65 164 -70 175 -4 11 -36 90 -70 175 -33 85 -65
164 -70 175 -5 11 -36 90 -70 175 -33 85 -65 164 -69 175 -47 109 -61 150 -61
172 0 28 0 28 100 0z m-638 -356 c24 -11 51 -22 61 -25 10 -3 17 -15 17 -31 0
-14 4 -45 9 -68 5 -23 15 -76 21 -117 6 -41 16 -94 21 -117 5 -22 14 -72 19
-110 18 -115 30 -186 65 -378 9 -49 20 -115 25 -145 5 -30 16 -93 24 -140 9
-47 16 -90 16 -96 0 -6 -19 -23 -41 -37 -39 -26 -42 -26 -55 -10 -7 10 -14 21
-14 24 0 3 -38 86 -85 183 -51 105 -85 189 -85 207 0 17 -7 58 -16 92 -47 182
-173 337 -341 419 -46 22 -83 42 -83 44 0 3 58 82 128 177 71 94 138 187 151
205 l23 33 48 -45 c27 -25 68 -54 92 -65z m435 32 c6 -16 37 -93 68 -173 32
-80 63 -158 71 -175 73 -169 604 -1520 604 -1538 0 -39 34 -132 70 -186 34
-54 125 -141 147 -141 29 0 8 -31 -74 -110 -49 -46 -164 -159 -258 -250 -623
-607 -811 -786 -834 -796 -14 -6 -45 -14 -69 -18 -24 -3 -64 -16 -90 -28 -56
-25 -159 -97 -185 -128 -33 -40 -84 -115 -91 -135 -7 -19 -8 -19 -29 6 -23 28
-226 256 -312 349 -117 129 -285 317 -304 342 l-21 26 47 24 c61 30 171 141
202 202 58 118 61 137 71 391 5 132 9 315 10 406 0 210 10 350 24 354 66 16
158 53 208 83 73 43 188 153 209 200 18 41 30 40 48 0 8 -18 40 -87 71 -153
31 -66 62 -140 69 -165 44 -149 115 -222 254 -260 54 -15 145 -1 207 30 48 24
117 101 143 158 34 73 30 190 -8 260 -35 64 -79 109 -142 143 -52 28 -49 19
-81 209 -6 36 -18 106 -27 155 -8 50 -20 116 -25 148 -23 134 -30 176 -45 257
-20 109 -31 178 -46 265 -6 39 -17 96 -24 127 -14 64 -13 67 58 103 21 11 43
26 49 33 15 18 22 15 35 -15z m-9045 -8 c57 -14 121 -30 143 -35 150 -34 320
-72 398 -90 23 -5 72 -16 110 -25 69 -15 126 -29 282 -65 50 -12 113 -26 140
-32 28 -6 63 -14 79 -17 16 -4 33 -13 37 -21 4 -8 17 -35 29 -60 41 -85 123
-155 214 -181 45 -13 55 -22 145 -139 132 -172 153 -200 149 -210 -2 -4 -116
-124 -254 -266 -138 -143 -268 -278 -288 -301 -21 -24 -41 -43 -45 -43 -3 0
-17 28 -29 63 -13 34 -30 76 -36 92 -7 17 -19 46 -26 65 -18 53 -26 71 -44
114 l-17 40 30 28 c65 61 85 140 59 232 -25 89 -119 166 -202 166 -91 0 -192
-52 -216 -111 -11 -26 -38 -38 -120 -52 -14 -3 -81 -17 -150 -32 -69 -15 -143
-31 -165 -35 -22 -5 -71 -15 -110 -23 -38 -8 -115 -24 -170 -36 -55 -11 -131
-27 -170 -36 -38 -9 -92 -20 -120 -25 -27 -5 -81 -16 -120 -25 -93 -21 -161
-35 -210 -45 -49 -10 -117 -24 -210 -45 -102 -23 -178 -35 -183 -30 -3 2 0 10
5 17 6 7 61 103 123 213 62 110 120 214 130 230 9 17 28 50 42 75 14 25 34 61
45 80 11 19 32 58 47 85 39 69 43 74 85 80 122 21 273 114 346 213 42 58 95
165 95 192 0 27 25 26 152 -5z m-960 -345 c31 -17 64 -30 73 -30 16 0 21 -30
6 -45 -5 -6 -23 -37 -41 -70 -42 -75 -48 -86 -155 -275 -118 -207 -139 -245
-215 -383 -23 -43 -45 -76 -47 -73 -4 4 4 47 47 241 4 22 14 67 20 100 7 33
19 89 26 125 32 146 82 391 96 460 5 30 12 61 14 68 3 9 24 -4 61 -37 31 -28
83 -65 115 -81z m-3894 46 c32 -71 158 -164 264 -197 186 -56 410 20 513 175
17 25 33 46 37 46 5 0 79 -89 133 -161 11 -15 48 -63 83 -108 34 -44 62 -88
62 -98 1 -73 68 -204 142 -275 l58 -56 -52 -29 c-78 -43 -144 -81 -226 -130
-41 -24 -75 -43 -77 -43 -2 0 -36 -19 -77 -43 -40 -24 -93 -55 -118 -69 -25
-14 -92 -52 -150 -85 -58 -33 -121 -69 -140 -80 -19 -11 -56 -31 -82 -46 -25
-14 -64 -37 -87 -51 -22 -14 -44 -26 -49 -26 -4 0 -14 16 -21 36 -19 53 -126
161 -190 193 -84 41 -121 49 -311 66 -96 8 -225 21 -287 27 l-112 11 30 44
c40 58 75 138 84 193 10 59 15 69 104 180 42 52 88 111 103 130 14 19 80 101
145 182 65 81 134 167 153 192 40 52 52 56 68 22z m16755 -131 l27 -34 -57
-81 c-40 -56 -66 -82 -83 -86 -204 -40 -359 -179 -420 -378 -19 -59 -16 -222
4 -281 64 -187 206 -315 399 -359 38 -9 98 -16 135 -16 37 0 121 -4 187 -10
121 -10 456 -34 638 -46 53 -4 97 -8 97 -10 0 -2 -34 -53 -75 -115 -41 -61
-82 -127 -91 -145 -9 -19 -26 -36 -38 -39 -11 -2 -131 -9 -265 -15 l-245 -10
-45 48 c-61 65 -103 94 -181 124 -95 37 -150 48 -246 48 -81 0 -105 -4 -209
-33 -104 -29 -234 -131 -269 -212 -10 -22 -22 -48 -27 -58 -6 -10 -12 -42 -15
-70 -3 -29 -9 -76 -14 -104 -20 -107 -55 -290 -69 -363 -5 -25 -15 -74 -21
-110 -12 -66 -38 -206 -46 -248 -4 -22 -7 -21 -62 22 -63 50 -144 93 -191 102
-17 4 -35 11 -40 18 -5 7 -6 224 -2 556 6 409 5 559 -4 602 -30 139 -126 261
-254 320 l-74 33 7 95 c4 52 11 156 16 230 5 74 9 136 10 138 0 1 39 2 86 2
72 0 94 4 138 26 28 14 67 40 86 58 33 32 120 71 260 116 30 10 107 37 170 60
63 23 135 48 160 56 25 8 54 19 65 24 22 9 134 50 205 74 127 43 274 96 278
101 15 15 50 1 75 -30z m-8636 -25 c54 -5 188 -16 298 -25 110 -8 250 -20 310
-25 61 -5 178 -14 260 -20 251 -19 465 -39 474 -45 5 -2 12 -22 16 -42 19
-100 105 -231 202 -307 77 -61 195 -116 247 -116 13 0 29 -6 35 -14 10 -11 56
-130 81 -206 4 -14 25 -70 45 -125 20 -55 47 -129 60 -165 13 -36 40 -110 60
-165 21 -55 43 -129 51 -164 18 -80 38 -124 81 -178 45 -56 108 -99 177 -120
l57 -17 237 -316 c131 -173 313 -414 405 -536 92 -121 167 -226 167 -232 0 -7
-6 -12 -14 -12 -40 0 -158 -139 -186 -221 l-13 -36 -86 -7 c-239 -17 -353 -26
-540 -41 -112 -9 -210 -14 -217 -11 -6 2 -15 20 -19 38 -18 81 -89 192 -170
266 -59 54 -173 116 -241 130 l-39 8 -7 84 c-3 47 -12 144 -18 215 -21 237
-28 340 -24 346 4 7 -21 137 -38 194 -26 90 -71 160 -152 241 -125 123 -245
174 -416 174 -155 0 -283 -49 -394 -152 -42 -38 -67 -55 -70 -46 -9 31 -75
400 -86 478 -25 179 -80 291 -204 415 -74 74 -107 98 -176 132 -100 48 -141
62 -207 70 -27 3 -56 10 -64 17 -16 12 -232 263 -236 274 -2 4 20 23 48 42 55
37 128 131 150 193 15 42 11 42 156 27z m3487 -135 c17 -7 38 -16 46 -18 8 -2
37 -58 64 -123 27 -66 59 -141 72 -169 12 -27 45 -106 74 -175 57 -137 68
-163 98 -231 11 -25 46 -108 77 -185 56 -135 69 -165 114 -266 11 -26 33 -78
47 -115 15 -38 31 -72 35 -78 16 -17 9 -24 -67 -60 -97 -47 -190 -137 -231
-224 -15 -33 -33 -61 -40 -61 -7 0 -44 20 -82 45 -38 25 -72 45 -75 45 -3 0
-36 20 -73 43 -38 24 -73 46 -79 48 -10 4 -471 279 -556 332 -28 17 -48 36
-48 47 0 37 -45 117 -98 172 -30 32 -61 58 -69 58 -7 0 -13 4 -13 9 0 6 48 76
107 158 59 81 163 225 230 318 68 94 155 215 195 270 39 55 93 130 121 168
l49 67 35 -31 c20 -17 49 -37 67 -44z m-4335 -38 c48 -51 168 -117 214 -117
19 0 40 -16 80 -62 136 -157 187 -218 187 -223 0 -3 -7 -5 -15 -5 -28 0 -139
-57 -202 -104 -75 -55 -163 -159 -206 -243 -23 -46 -34 -59 -43 -52 -7 6 -64
78 -128 162 -64 84 -157 205 -207 270 l-90 119 113 116 c63 65 139 143 169
175 l54 59 15 -24 c8 -13 35 -45 59 -71z m4711 51 c22 -42 77 -145 130 -243
74 -136 90 -174 90 -220 0 -42 23 -113 62 -192 46 -95 177 -227 273 -274 39
-20 93 -41 120 -49 28 -7 54 -16 58 -20 5 -4 5 -115 1 -247 l-7 -240 -53 32
c-29 17 -79 40 -111 49 -32 9 -65 21 -73 25 -8 4 -50 91 -93 192 -43 101 -81
193 -86 204 -5 11 -30 72 -56 135 -45 109 -56 136 -103 240 -11 25 -41 97 -67
160 -25 63 -60 143 -76 178 -16 35 -29 68 -29 73 0 5 -4 17 -10 27 -17 30 -60
134 -60 146 0 8 56 64 66 66 1 0 12 -19 24 -42z m-13985 -251 c22 -8 74 -27
115 -42 41 -15 84 -30 95 -35 11 -5 56 -21 100 -36 92 -31 115 -47 115 -82 0
-14 16 -59 37 -101 49 -104 141 -195 243 -243 84 -40 135 -49 415 -72 99 -9
215 -18 258 -22 42 -3 77 -9 77 -11 0 -3 -10 -18 -21 -35 -57 -79 -84 -236
-58 -332 34 -124 130 -248 235 -302 15 -8 52 -21 83 -29 150 -41 133 -35 301
-112 41 -19 89 -41 105 -48 94 -40 293 -131 317 -145 10 -6 24 -10 32 -10 29
0 27 -22 -7 -59 -19 -21 -38 -45 -43 -53 -5 -8 -38 -22 -74 -31 -36 -9 -114
-30 -175 -47 -60 -16 -168 -46 -240 -65 -71 -19 -188 -51 -260 -70 -202 -55
-537 -145 -683 -184 -45 -12 -91 -19 -102 -16 -28 9 -125 136 -165 215 -35 70
-87 194 -104 250 -6 19 -20 64 -31 100 -18 58 -65 242 -106 420 -28 120 -66
275 -74 305 -77 261 -153 429 -301 665 -117 187 -155 255 -138 248 8 -3 32
-13 54 -21z m18821 -32 c10 -8 27 -15 37 -15 23 0 127 -103 127 -124 0 -9 5
-16 10 -16 6 0 10 -15 10 -33 0 -18 5 -38 11 -44 16 -16 1 -127 -24 -183 -22
-48 -75 -106 -118 -128 -37 -19 -61 -23 -149 -24 -109 -1 -147 11 -204 61 -31
27 -76 98 -76 120 0 11 -4 23 -10 26 -5 3 -10 37 -10 75 0 38 5 72 10 75 6 3
10 16 10 28 0 26 41 90 79 124 55 48 121 72 202 73 51 0 81 -5 95 -15z
m-11281 -213 c13 -15 39 -36 58 -47 32 -17 40 -31 87 -154 54 -144 84 -222
119 -310 11 -29 21 -60 21 -67 0 -8 -66 -82 -146 -164 -81 -82 -153 -158 -161
-167 -13 -17 -15 -16 -36 12 -81 110 -181 174 -303 195 -163 27 -334 -50 -425
-191 -18 -27 -36 -49 -41 -49 -4 0 -56 37 -115 83 -60 45 -211 160 -336 256
-199 152 -228 178 -237 210 -5 20 -19 51 -30 69 -23 37 -26 34 65 52 33 6 78
16 100 20 22 5 74 16 115 25 41 9 93 20 115 25 22 5 54 11 70 14 34 6 87 18
190 41 39 9 93 20 120 25 28 5 82 16 120 25 39 9 115 25 170 36 55 12 118 25
140 30 179 39 273 58 293 58 14 1 33 -10 47 -27z m1328 -158 c257 -334 312
-406 346 -452 27 -37 38 -66 53 -142 50 -252 218 -449 453 -535 41 -15 75 -30
75 -33 0 -3 -27 -60 -59 -126 -63 -129 -172 -356 -239 -496 -173 -363 -169
-358 -181 -325 -21 55 -83 169 -124 225 -166 230 -429 381 -716 412 -29 4 -30
6 -76 133 -20 55 -40 109 -45 120 -4 11 -14 36 -20 55 -7 19 -19 49 -25 65 -7
17 -29 75 -50 130 -20 55 -40 109 -45 120 -4 11 -15 40 -25 65 -10 25 -21 54
-25 65 -11 26 -76 204 -84 229 -5 14 20 46 112 140 152 157 327 338 432 449
46 48 88 86 94 84 6 -2 73 -84 149 -183z m-2758 -590 c61 -47 169 -130 240
-185 363 -276 328 -246 342 -303 7 -28 17 -59 23 -68 19 -33 12 -41 -29 -34
-21 3 -146 11 -277 16 -312 14 -338 18 -342 50 -2 14 -20 59 -39 100 -48 100
-133 185 -230 231 -40 19 -73 39 -73 45 0 24 47 80 77 89 51 17 133 75 156
111 12 19 27 34 32 34 6 0 60 -39 120 -86z m-610 -14 c40 -25 42 -35 18 -85
-13 -28 -25 -37 -57 -46 -23 -5 -54 -15 -69 -21 -15 -6 -29 -9 -32 -7 -3 4 24
158 41 228 5 24 5 24 35 -12 16 -19 45 -45 64 -57z m7593 -226 c70 -43 141
-85 157 -94 17 -9 62 -36 100 -60 39 -24 79 -48 90 -54 11 -6 91 -54 178 -106
86 -52 165 -99 175 -105 82 -47 87 -53 99 -109 41 -193 212 -355 415 -390 38
-7 35 -3 339 -341 20 -22 62 -69 95 -105 208 -230 451 -505 461 -524 7 -11 12
-33 13 -47 1 -77 82 -231 161 -305 44 -41 136 -99 172 -108 15 -4 30 -12 33
-20 3 -7 -22 -68 -54 -137 -33 -68 -80 -167 -105 -219 l-45 -95 -68 -24 c-117
-40 -204 -120 -255 -236 -19 -43 -23 -46 -47 -40 -34 8 -256 43 -392 60 -85
11 -170 27 -170 32 0 3 15 22 34 43 108 120 160 304 130 464 -38 199 -176 368
-359 437 -42 16 -136 38 -162 39 -12 0 -54 19 -95 43 -40 23 -94 54 -120 67
-53 28 -56 33 -30 52 9 7 31 31 49 53 131 169 111 402 -46 548 -54 49 -116 82
-211 110 -8 2 -85 96 -169 208 -759 1002 -670 881 -651 887 23 8 110 94 126
124 8 15 17 28 19 28 3 0 62 -34 133 -76z m-2533 -196 c16 -79 32 -168 36
-198 30 -231 60 -311 162 -433 43 -51 137 -122 202 -152 22 -10 42 -19 44 -21
2 -1 -44 -58 -102 -126 -150 -176 -398 -467 -572 -673 -82 -97 -181 -214 -219
-259 -72 -85 -98 -105 -131 -106 -33 0 -123 -36 -176 -70 -91 -59 -182 -180
-208 -278 -7 -26 -10 -27 -67 -24 -59 2 -205 14 -404 32 -58 6 -125 10 -150
10 l-45 1 35 27 c75 57 184 170 235 242 98 141 159 304 183 495 9 70 22 104
100 265 87 181 131 272 267 555 288 598 266 556 285 565 8 4 50 16 92 25 133
31 298 134 368 230 14 19 28 35 31 35 3 0 19 -64 34 -142z m6763 -290 l-3
-343 -30 -9 c-68 -21 -175 -78 -219 -117 -89 -79 -146 -172 -176 -288 l-16
-64 -89 -55 c-50 -30 -103 -63 -120 -72 -16 -9 -95 -57 -175 -105 -80 -48
-157 -94 -172 -102 -15 -8 -30 -18 -33 -24 -12 -19 -25 -7 -51 49 -15 31 -43
78 -63 103 -42 53 -144 137 -183 151 -16 6 -28 13 -28 17 0 4 28 34 63 66 34
32 130 124 212 205 598 582 825 801 857 829 23 20 62 39 102 50 36 10 76 25
88 34 13 9 26 16 31 16 4 1 6 -153 5 -341z m2109 210 c-9 -133 -23 -193 -50
-206 -12 -6 -51 -21 -87 -32 -170 -56 -227 -102 -288 -232 -19 -41 -32 -47
-53 -22 -8 9 -60 57 -116 106 -57 49 -103 94 -103 99 0 5 8 13 18 16 61 23
186 139 217 203 9 19 21 43 26 52 5 10 9 31 9 48 0 17 6 33 14 36 14 5 241 19
360 23 l59 1 -6 -92z m-1253 -233 c45 -34 127 -69 216 -91 83 -21 71 -12 358
-263 78 -68 142 -128 142 -132 0 -5 -51 -46 -112 -93 -62 -46 -129 -100 -150
-120 -39 -38 -228 -257 -275 -318 -228 -299 -354 -470 -523 -708 -111 -157
-206 -286 -211 -288 -5 -2 -9 2 -9 10 0 7 -7 67 -16 133 -16 132 -27 222 -43
362 -6 51 -12 98 -13 104 -2 7 17 19 42 28 93 34 147 68 216 136 113 112 136
170 185 475 6 36 22 121 35 190 13 69 29 150 34 180 13 72 57 301 71 368 6 28
13 52 15 52 3 0 20 -11 38 -25z m-15770 -292 c16 -31 56 -70 99 -96 17 -11 27
-26 27 -42 0 -14 14 -38 34 -58 l33 -33 319 -12 c175 -7 432 -17 569 -22 138
-5 337 -13 443 -16 134 -5 190 -10 182 -18 -5 -5 -10 -18 -10 -27 0 -26 -39
-49 -82 -49 -21 0 -84 -6 -140 -14 -57 -8 -146 -20 -198 -26 -178 -21 -449
-55 -575 -71 -166 -23 -1141 15 -1355 52 -60 11 -187 48 -235 69 -30 13 -197
77 -219 84 -30 10 -13 18 117 52 124 33 290 77 522 140 72 19 162 43 200 53
161 43 188 51 193 56 3 3 18 5 33 5 21 0 32 -7 43 -27z m9231 -185 l10 -110
-25 -9 c-105 -38 -150 -61 -206 -105 -126 -101 -193 -216 -219 -376 -4 -29
-51 -92 -227 -305 -121 -147 -238 -288 -259 -313 -21 -25 -70 -85 -110 -134
-72 -88 -73 -89 -88 -67 -67 94 -134 156 -208 195 -18 9 -33 19 -33 21 0 3 62
78 138 167 75 88 166 195 202 238 36 42 135 160 221 261 87 101 201 236 254
299 166 196 154 185 235 204 85 19 201 74 256 121 21 19 41 31 44 29 3 -3 10
-55 15 -116z m253 -346 c2 -6 10 -12 18 -12 58 0 159 -115 193 -221 14 -44 15
-176 1 -184 -5 -3 -10 -17 -10 -29 0 -13 -7 -29 -15 -36 -8 -7 -15 -18 -15
-25 0 -25 -81 -103 -132 -128 -67 -32 -99 -40 -168 -40 -141 0 -257 70 -315
190 -10 21 -22 46 -26 55 -12 24 -11 184 1 206 5 9 17 35 27 57 19 45 99 135
120 135 7 0 13 5 13 10 0 6 11 10 25 10 14 0 25 4 25 9 0 16 31 20 144 18 76
-2 111 -6 114 -15z m-7788 -63 c0 -6 15 -34 34 -64 42 -65 122 -127 194 -150
46 -15 58 -25 88 -72 18 -29 34 -56 34 -59 0 -3 16 -30 35 -60 19 -30 35 -56
35 -58 0 -2 43 -74 95 -161 52 -87 95 -160 95 -162 0 -2 11 -22 26 -44 14 -22
33 -55 43 -72 71 -123 260 -443 292 -494 21 -34 39 -65 39 -67 0 -3 17 -33 39
-68 105 -171 213 -360 208 -364 -2 -3 -16 -2 -31 2 -41 10 -128 124 -470 612
-281 402 -439 609 -590 774 -173 190 -354 344 -508 433 -37 21 -66 40 -64 42
8 8 387 51 399 45 4 -2 7 -8 7 -13z m12837 -218 c34 -72 111 -160 184 -208 23
-16 78 -42 123 -58 l81 -31 7 -64 c10 -80 24 -190 42 -335 8 -60 20 -150 26
-200 6 -49 16 -126 21 -170 16 -115 11 -136 -32 -157 -30 -15 -174 -45 -379
-78 -30 -5 -120 -20 -200 -35 -80 -14 -170 -30 -200 -35 -61 -10 -120 -20
-255 -45 -49 -9 -115 -20 -145 -25 -30 -5 -80 -13 -110 -19 -189 -33 -234 -41
-244 -41 -7 0 -25 27 -41 59 -32 68 -109 149 -172 181 -24 12 -43 28 -43 35 0
8 32 81 71 162 39 81 86 180 105 220 l33 71 53 11 c138 30 290 144 356 269 34
64 62 143 62 178 0 16 40 45 181 130 100 60 193 116 208 124 14 8 50 30 79 48
29 17 55 32 58 32 3 0 22 11 42 25 20 14 41 25 47 25 5 0 24 -31 42 -69z
m-3750 -118 c52 -127 161 -217 301 -252 60 -14 254 -109 267 -130 3 -5 -8 -17
-23 -27 -78 -51 -212 -213 -212 -257 0 -7 -4 -17 -9 -22 -5 -6 -17 -46 -26
-90 -18 -89 -18 -89 -210 -365 -67 -96 -166 -240 -220 -320 -55 -80 -131 -190
-170 -245 -67 -95 -73 -100 -115 -107 -64 -11 -160 -61 -220 -114 -28 -26 -52
-45 -54 -43 -3 4 -106 318 -106 325 0 2 20 13 45 25 55 26 139 99 169 148 148
235 33 556 -224 630 -80 23 -95 34 -221 171 -68 74 -139 151 -156 170 -18 19
-33 37 -33 40 0 3 25 18 56 34 132 69 241 208 285 362 l11 41 157 12 c296 22
416 32 506 40 50 4 112 9 138 10 46 1 49 0 64 -36z m-1917 -216 c0 -5 21 -36
47 -69 31 -38 75 -78 128 -112 87 -58 112 -69 195 -86 30 -7 62 -15 70 -20 8
-4 89 -87 180 -185 l165 -178 -25 -16 c-84 -54 -154 -145 -185 -239 -9 -30
-24 -56 -34 -59 -14 -4 -152 -57 -216 -83 -36 -14 -149 -57 -210 -80 -33 -13
-73 -28 -90 -35 -16 -7 -61 -25 -100 -40 -38 -15 -79 -30 -90 -35 -11 -4 -51
-20 -90 -35 -38 -15 -79 -30 -90 -35 -11 -4 -51 -20 -90 -35 -38 -15 -79 -30
-90 -35 -11 -4 -51 -20 -90 -35 -38 -15 -79 -30 -90 -35 -11 -4 -51 -20 -90
-35 -38 -15 -79 -30 -90 -35 -11 -4 -51 -20 -90 -35 -38 -15 -79 -30 -90 -35
-11 -4 -51 -20 -90 -35 -38 -15 -79 -30 -90 -35 -11 -4 -51 -20 -90 -35 -38
-15 -79 -31 -90 -35 -11 -4 -51 -20 -90 -35 -38 -15 -79 -31 -90 -35 -11 -5
-51 -20 -90 -35 -38 -15 -78 -31 -87 -36 -23 -12 -127 -12 -220 0 -40 5 -183
15 -318 22 -193 10 -283 10 -420 0 -194 -13 -236 -21 -360 -63 -205 -71 -233
-78 -288 -78 -31 0 -102 12 -157 26 -55 14 -118 30 -140 35 -170 38 -181 39
-324 34 -177 -7 -276 5 -466 57 -38 11 -83 23 -100 28 -79 21 -336 106 -416
138 -31 12 -38 31 -72 177 -14 61 -33 140 -41 176 -9 36 -16 68 -16 70 0 3 22
20 49 38 28 17 66 54 86 81 20 28 40 50 43 50 6 0 127 -43 167 -60 11 -4 27
-11 37 -13 10 -4 19 -22 23 -49 4 -24 24 -80 46 -125 30 -63 55 -98 110 -153
39 -38 75 -70 80 -70 5 0 26 -10 47 -23 63 -39 173 -67 262 -67 147 1 276 56
385 164 73 71 133 174 150 253 l6 32 602 -5 c331 -3 886 -9 1232 -14 693 -9
703 -9 819 49 150 75 228 182 276 379 8 31 42 80 133 190 67 81 131 158 142
171 11 14 34 41 51 60 16 20 39 48 51 63 11 15 40 51 65 80 72 85 150 179 187
227 l34 43 18 -23 c10 -13 19 -28 19 -32z m-3801 -143 c60 -129 171 -264 294
-358 156 -119 395 -206 568 -206 32 0 102 -4 156 -10 54 -5 159 -14 233 -19
217 -17 497 -41 603 -51 54 -6 123 -10 155 -10 86 0 98 -6 112 -53 6 -23 23
-63 38 -90 14 -26 23 -49 21 -51 -3 -4 -434 -1 -1965 14 l-40 0 -19 63 c-22
74 -86 176 -146 233 -46 44 -150 114 -169 114 -6 0 -25 7 -41 16 -21 10 -28
19 -21 27 5 7 19 39 32 72 13 33 29 76 37 95 26 63 88 215 103 254 5 14 11 26
14 26 2 0 18 -30 35 -66z m6090 -823 c32 -59 129 -153 197 -192 96 -56 137
-66 399 -100 93 -12 182 -25 315 -45 121 -19 195 -30 295 -44 177 -25 265 -43
265 -54 0 -23 53 -122 87 -164 20 -25 64 -62 97 -84 73 -47 71 -45 59 -60 -6
-7 -43 -76 -83 -153 -88 -169 -151 -289 -156 -294 -2 -2 -56 22 -120 54 -124
60 -164 76 -229 93 -127 33 -427 43 -522 18 -174 -47 -285 -168 -342 -376 -12
-41 -21 -87 -21 -102 0 -16 -3 -28 -7 -27 -5 0 -35 31 -67 67 -33 37 -126 138
-208 225 -119 128 -150 167 -158 200 -23 92 -36 125 -72 183 -46 74 -106 132
-182 174 l-56 32 33 47 c49 67 323 463 387 559 30 45 57 82 60 82 4 0 16 -18
29 -39z m-1681 -256 c42 -87 130 -165 227 -200 28 -10 55 -22 60 -26 6 -4 23
-45 38 -91 109 -329 166 -511 177 -563 24 -116 59 -217 80 -230 37 -23 -12
-26 -342 -23 -246 2 -359 7 -373 15 -35 20 -92 43 -108 43 -9 0 -19 5 -22 10
-3 6 -15 10 -26 10 -10 0 -27 4 -37 10 -16 8 -129 44 -227 71 -22 6 -60 17
-85 24 -25 7 -65 18 -90 24 -160 37 -224 52 -295 65 -44 9 -102 20 -130 26
-117 23 -268 49 -410 70 -38 5 -113 16 -165 24 -52 8 -128 18 -168 21 -41 4
-70 11 -65 15 4 4 114 48 243 98 129 49 242 92 250 96 8 3 330 129 715 280
385 151 707 274 716 275 8 1 24 -18 37 -44z m5132 41 c0 -14 -665 -466 -685
-466 -3 0 -36 -20 -75 -45 -39 -25 -72 -45 -75 -45 -3 0 -24 -11 -46 -26 -211
-133 -645 -326 -806 -359 -37 -7 -37 -2 0 65 11 19 53 100 94 180 41 80 80
150 87 156 6 5 29 16 51 23 74 23 124 53 177 107 54 55 108 142 108 175 0 29
22 36 220 69 92 15 178 30 260 45 41 8 102 19 135 24 95 16 236 41 285 51 25
4 79 14 120 20 41 7 89 16 105 20 38 10 45 11 45 6z m-3447 -1375 c232 -252
235 -255 240 -305 8 -79 41 -167 126 -336 81 -164 91 -190 115 -310 36 -186
40 -224 41 -375 0 -129 -4 -171 -18 -218 -18 -55 -50 -107 -60 -97 -3 3 -10
47 -16 98 -17 140 -54 220 -164 357 -175 217 -662 612 -1073 870 -114 72 -364
221 -421 251 -37 19 -72 40 -78 46 -7 6 98 9 320 8 205 -1 353 2 390 9 120 22
249 108 315 211 18 28 36 49 40 48 5 -2 114 -117 243 -257z"/>
<path d="M17616 21567 c-35 -45 -34 -87 3 -126 25 -26 36 -31 76 -31 40 0 51
5 76 31 38 41 39 88 2 129 -23 26 -33 30 -79 30 -48 0 -55 -3 -78 -33z"/>
<path d="M12201 19846 c-52 -20 -71 -51 -71 -121 0 -49 4 -65 24 -87 21 -26
29 -28 93 -28 62 0 72 3 94 26 21 22 24 35 23 93 -1 73 -17 103 -65 114 -13 3
-33 8 -44 10 -11 3 -35 -1 -54 -7z"/>
<path d="M20198 19757 c-38 -44 -39 -116 -2 -164 14 -18 34 -33 45 -33 10 0
19 -4 19 -10 0 -18 57 -11 99 12 23 12 41 28 41 35 0 7 5 13 10 13 14 0 12
106 -2 132 -23 40 -41 47 -113 47 -67 0 -71 -1 -97 -32z"/>
<path d="M8592 18298 c-21 -10 -23 -17 -20 -72 3 -59 4 -62 40 -81 37 -20 38
-20 70 -1 43 25 48 33 48 83 0 31 -6 48 -22 63 -24 22 -78 26 -116 8z"/>
<path d="M13433 17239 c-30 -9 -33 -13 -33 -47 0 -46 14 -62 55 -62 41 0 55
16 55 62 0 27 -5 40 -19 48 -11 5 -21 10 -23 9 -2 0 -18 -5 -35 -10z"/>
<path d="M21020 17130 c0 -5 -6 -10 -13 -10 -8 0 -30 -18 -50 -40 -36 -38 -37
-41 -37 -120 0 -80 0 -80 38 -118 88 -88 262 -63 302 44 6 14 10 52 10 86 0
52 -4 65 -30 99 -17 21 -45 45 -62 53 -35 18 -158 22 -158 6z"/>
<path d="M23165 14550 c-3 -5 -15 -10 -26 -10 -10 0 -19 -4 -19 -10 0 -5 -6
-10 -12 -10 -19 -1 -78 -57 -78 -75 0 -8 -4 -15 -8 -15 -14 0 -44 -134 -37
-165 25 -112 72 -182 149 -221 34 -17 236 -20 236 -4 0 6 8 10 18 10 24 0 92
67 113 111 28 58 39 123 29 160 -6 19 -10 46 -10 61 0 14 -3 28 -7 30 -5 2
-21 22 -36 46 -15 23 -39 48 -52 54 -14 6 -25 15 -25 20 0 4 -9 8 -19 8 -11 0
-23 5 -26 10 -3 6 -46 10 -95 10 -49 0 -92 -4 -95 -10z"/>
<path d="M16141 12003 c-54 -31 -121 -96 -121 -117 0 -9 -4 -16 -10 -16 -5 0
-10 -9 -10 -19 0 -11 -4 -23 -10 -26 -14 -8 -13 -187 1 -222 27 -67 36 -80 76
-120 46 -46 117 -83 157 -83 14 0 28 -4 31 -10 3 -5 21 -10 40 -10 19 0 37 5
40 10 3 6 19 10 35 10 30 0 102 29 108 43 2 4 8 7 13 7 14 0 89 78 89 93 0 8
3 17 7 21 28 28 47 226 23 241 -5 3 -10 17 -10 30 0 13 -4 27 -10 30 -5 3 -10
13 -10 21 0 29 -111 124 -145 124 -8 0 -15 5 -15 10 0 6 -45 10 -117 9 -107 0
-122 -3 -162 -26z"/>
</g>
</svg>
